<svg width="300" height="300" xmlns="http://www.w3.org/2000/svg" class="iconLeft">
 <!---->
 <defs>
  <!---->
  <linearGradient y2="0%" x2="100%" y1="0%" x1="0%" id="786484e8-b092-4f22-8c61-82ceff17c884" gradientTransform="rotate(25)">
   <stop stop-color="#000A68" offset="0%"/>
   <stop stop-color="#00C4EE" offset="100%"/>
  </linearGradient>
 </defs>
 <defs>
  <!---->
 </defs>

 <!---->
 <g>
  <title>background</title>
  <rect fill="none" id="canvas_background" height="697" width="1360" y="-1" x="-1"/>
 </g>
 <g>
  <title>Layer 1</title>
  <rect id="svg_1" class="logo-background-square" height="300" width="300" y="0" x="-0.60606" fill="transparent"/>
  <g transform="matrix(3.0808372923897913,0,0,3.0808372923897913,262.10171286733333,888.3503017371569) " fill="url(#786484e8-b092-4f22-8c61-82ceff17c884)" id="e12281db-58b2-497f-8314-b22b56365af9">
   <path id="svg_3" d="m-42.136775,-233.658973a8.39,8.39 0 0 1 0,-11.9c3.3,-3.3 8.6,-3.3 11.9,0c3.3,3.3 3.3,8.6 0,11.9s-8.6,3.4 -11.9,0zm-39.2,-5.9c0,-3.1 2.5,-5.6 5.6,-5.6l6.2,0c1.1,-6.7 4.2,-13.1 9.3,-18.2c5.2,-5.2 11.6,-8.2 18.2,-9.3l0,-6.2c0.1,-3.2 2.6,-5.7 5.7,-5.7s5.6,2.5 5.6,5.6l0,6.2c6.7,1.1 13.1,4.2 18.2,9.3c5.2,5.2 8.2,11.6 9.3,18.2l6.2,0c3.1,0 5.6,2.5 5.6,5.6s-2.5,5.6 -5.6,5.6l-6.2,0c-1.1,6.7 -4.2,13.1 -9.3,18.2c-5.2,5.2 -11.6,8.2 -18.2,9.3l0,6.2c0,3.1 -2.5,5.6 -5.6,5.6s-5.6,-2.5 -5.6,-5.6l0,-6.2c-6.7,-1.1 -13.1,-4.2 -18.2,-9.3c-5.2,-5.2 -8.2,-11.6 -9.3,-18.2l-6.2,0c-3.2,0.2 -5.7,-2.3 -5.7,-5.5zm29.3,15.9c4.2,4.2 9.9,6.6 15.9,6.6s11.7,-2.3 15.9,-6.6c8.8,-8.8 8.8,-23.2 0,-32c-4.2,-4.2 -9.9,-6.6 -15.9,-6.6s-11.7,2.4 -15.9,6.7c-9,8.8 -9,23.2 0,31.9z"/>
  </g>
 </g>
</svg>