<svg data-v-fde0c5aa="" xmlns="http://www.w3.org/2000/svg" viewBox="0 0 300 300" class="font"><!----><defs data-v-fde0c5aa=""><!----></defs><rect data-v-fde0c5aa="" fill="transparent" x="0" y="0" width="300px" height="300px" class="logo-background-square"></rect><defs data-v-fde0c5aa=""><linearGradient data-v-fde0c5aa="" gradientTransform="rotate(25)" id="0a1050e3-0bd3-46f1-8c8e-56356046be1f" x1="0%" y1="0%" x2="100%" y2="0%"><stop data-v-fde0c5aa="" offset="0%" stop-color="#000A68" stop-opacity="1"></stop><stop data-v-fde0c5aa="" offset="100%" stop-color="#00C4EE" stop-opacity="1"></stop></linearGradient></defs><g data-v-fde0c5aa="" id="1d58e25c-bb19-4122-b0b8-a54592fe3c1a" fill="url(#0a1050e3-0bd3-46f1-8c8e-56356046be1f)" transform="matrix(3.5647891915427143,0,0,3.5647891915427143,39.013992152979085,131.46309667142947)"><path d="M8.48 9.63C7.43 6.45 5.46 2.03 4.58 1.09C4.48 1.01 4.30 1.01 4.20 1.09C3.32 2.03 1.34 6.45 0.29 9.63C0.10 10.21 1.99 10.21 2.16 9.63C2.37 8.93 2.58 8.27 2.79 7.62L5.99 7.62C6.20 8.27 6.41 8.93 6.62 9.63C6.79 10.19 8.69 10.21 8.48 9.63ZM3.26 6.23C3.58 5.33 3.95 4.44 4.40 3.50C4.83 4.44 5.19 5.33 5.52 6.23ZM10.35 2.31C10.91 2.31 11.30 1.92 11.30 1.29C11.30 0.70 10.91 0.29 10.35 0.29C9.76 0.29 9.38 0.70 9.38 1.29C9.38 1.92 9.76 2.31 10.35 2.31ZM11.49 8.51C11.45 8.53 11.41 8.54 11.37 8.54C11.23 8.54 11.16 8.43 11.16 8.25L11.16 3.56C11.16 2.90 9.51 3.58 9.51 4.26L9.51 8.65C9.51 9.63 9.98 10.04 10.61 10.04C10.89 10.04 11.20 9.97 11.49 9.83C12.08 9.53 12.08 8.26 11.49 8.51ZM23.98 8.57C23.86 8.62 23.76 8.64 23.66 8.64C23.38 8.64 23.24 8.44 23.24 8.04L23.24 7.63L23.24 5.73C23.24 4.26 22.43 3.37 21.10 3.37C20.20 3.37 19.38 3.75 18.76 4.52C18.42 3.79 17.77 3.37 16.86 3.37C16.03 3.37 15.27 3.70 14.67 4.34L14.45 3.67C14.31 3.28 13.08 3.23 13.08 3.77L13.08 9.63C13.08 10.19 14.71 10.19 14.71 9.63L14.71 5.73C15.22 5.07 15.72 4.82 16.17 4.82C16.95 4.82 17.35 5.28 17.35 6.30L17.35 9.63C17.35 10.19 18.98 10.19 18.98 9.63L18.98 5.73L18.98 5.70C19.47 5.05 19.96 4.82 20.41 4.82C21.18 4.82 21.60 5.28 21.60 6.30L21.60 7.20L21.60 8.29C21.60 9.66 22.18 10.11 22.90 10.11C23.24 10.11 23.60 10.01 23.98 9.87C24.57 9.62 24.54 8.29 23.98 8.57ZM35.55 1.13L28.56 1.13C27.90 1.13 28.60 2.58 29.26 2.58L31.23 2.58L31.23 9.63C31.23 10.19 33.00 10.19 33.00 9.63L33.00 2.58L35.55 2.58C36.09 2.58 36.09 1.13 35.55 1.13ZM41.55 6.23C41.55 4.38 40.53 3.37 38.49 3.37C36.36 3.37 35.25 4.66 35.25 6.66C35.25 9.04 36.97 10.04 38.70 10.04C39.48 10.04 40.22 9.83 40.87 9.42C41.26 9.17 41.26 8.02 40.74 8.25C40.03 8.57 39.41 8.75 38.82 8.75C37.84 8.75 36.93 8.27 36.90 7.28C37.28 7.34 37.70 7.36 38.08 7.36C39.84 7.36 41.55 6.89 41.55 6.23ZM36.93 6.10C36.95 5.03 37.66 4.62 38.56 4.62C39.54 4.62 40.05 5.08 40.05 5.77C40.05 5.98 39.14 6.16 37.98 6.16C37.65 6.16 37.30 6.15 36.93 6.10ZM49.22 8.48C49.11 8.53 49.01 8.54 48.92 8.54C48.65 8.54 48.51 8.33 48.51 7.76L48.51 6.03C48.51 4.05 47.42 3.37 45.71 3.37C44.30 3.37 43.47 3.65 42.88 4.14C42.42 4.51 42.52 5.56 42.99 5.26C43.57 4.93 44.34 4.69 45.21 4.69C46.38 4.69 46.87 5.08 46.87 6.24L46.87 6.31C46.44 6.09 45.79 5.95 44.90 5.95C43.40 5.95 42.43 6.76 42.43 8.01C42.43 9.25 43.34 10.05 44.74 10.05C45.82 10.05 46.58 9.66 47.04 9.24C47.26 9.81 47.68 10.02 48.17 10.02C48.51 10.02 48.87 9.93 49.22 9.79C49.83 9.53 49.83 8.26 49.22 8.48ZM45.19 8.75C44.38 8.75 44.09 8.37 44.09 7.97C44.09 7.55 44.41 7.15 45.28 7.15C46.09 7.15 46.62 7.29 46.87 7.48L46.87 8.04C46.62 8.34 46.06 8.75 45.19 8.75ZM61.56 8.57C61.43 8.62 61.33 8.64 61.24 8.64C60.96 8.64 60.82 8.44 60.82 8.04L60.82 7.63L60.82 5.73C60.82 4.26 60.00 3.37 58.67 3.37C57.78 3.37 56.95 3.75 56.34 4.52C56.00 3.79 55.34 3.37 54.43 3.37C53.61 3.37 52.85 3.70 52.25 4.34L52.02 3.67C51.88 3.28 50.65 3.23 50.65 3.77L50.65 9.63C50.65 10.19 52.29 10.19 52.29 9.63L52.29 5.73C52.79 5.07 53.30 4.82 53.75 4.82C54.53 4.82 54.92 5.28 54.92 6.30L54.92 9.63C54.92 10.19 56.56 10.19 56.56 9.63L56.56 5.73L56.56 5.70C57.05 5.05 57.54 4.82 57.99 4.82C58.76 4.82 59.18 5.28 59.18 6.30L59.18 7.20L59.18 8.29C59.18 9.66 59.75 10.11 60.48 10.11C60.82 10.11 61.18 10.01 61.56 9.87C62.15 9.62 62.12 8.29 61.56 8.57Z"></path></g><!----><!----></svg>